<svg fill="none" xmlns="http://www.w3.org/2000/svg" viewBox="0 0 480 270"><g clip-path="url(#a)"><mask id="b" style="mask-type:luminance" maskUnits="userSpaceOnUse" x="0" y="0" width="480" height="270"><path d="M480 0H0v270h480V0Z" fill="#fff"/></mask><g mask="url(#b)"><path d="M480 0H0v270h480V0Z" fill="#010101"/><mask id="c" style="mask-type:luminance" maskUnits="userSpaceOnUse" x="-535" y="-328" width="1550" height="926"><path d="M1014.56-327.88H-534.62V597.9h1549.18v-925.76Z" fill="#fff"/></mask><g mask="url(#c)"><path d="m-410.85 298.4-67.61-272.16L70.7-110.18C145.8-128.83 221.93-83 240.58-7.9c18.66 75.1-27.17 151.23-102.28 169.88L-410.85 298.4Z" fill="url(#d)"/><path d="M240.6-7.92c-18.66-75.1 27.17-151.23 102.27-169.88l604.11-150.07L1014.6-55.7 410.48 94.36C335.38 113 259.25 67.18 240.59-7.92Z" fill="url(#e)"/><path d="M239.4 277.92c-18.66-75.1 27.17-151.22 102.27-169.88L890.83-28.37l67.6 272.16L409.29 380.2c-75.1 18.66-151.23-27.17-169.88-102.28Z" fill="url(#f)"/><path d="m-467 597.9-67.61-272.17L69.5 175.67c75.1-18.66 151.23 27.17 169.88 102.28 18.66 75.1-27.17 151.23-102.28 169.88L-467 597.9Z" fill="url(#g)"/><path d="M237.36-7.11A136.46 136.46 0 0 1 221.78 96.5a136.46 136.46 0 0 1-84.28 62.25L-408.46 294.4l-66.01-265.74L71.48-106.98A136.48 136.48 0 0 1 175.1-91.4a136.46 136.46 0 0 1 62.26 84.28Z" fill="url(#h)"/><path d="M1010.55-58.13 409.65 91.15a136.46 136.46 0 0 1-103.62-15.58A136.43 136.43 0 0 1 243.79-8.7a136.48 136.48 0 0 1 15.58-103.62 136.44 136.44 0 0 1 84.28-62.26l600.9-149.28 66.01 265.74Z" fill="url(#i)"/><path d="M242.58 277.13a136.47 136.47 0 0 0 62.26 84.29 136.46 136.46 0 0 0 103.62 15.57L954.4 241.36 888.38-24.38 342.44 111.25a136.49 136.49 0 0 0-84.29 62.26 136.48 136.48 0 0 0-15.57 103.62Z" fill="url(#j)"/><path d="M-464.6 593.88 136.3 444.6a136.45 136.45 0 0 0 84.29-62.26 136.44 136.44 0 0 0 15.57-103.62 136.47 136.47 0 0 0-62.26-84.29 136.42 136.42 0 0 0-103.62-15.57l-600.9 149.28 66.02 265.74Z" fill="url(#k)"/></g></g></g><defs><radialGradient id="h" cx="0" cy="0" r="1" gradientUnits="userSpaceOnUse" gradientTransform="matrix(-325.20022 80.78015 -75.12526 -302.43505 235.16 -6.04)"><stop offset=".21" stop-color="#010007"/><stop offset=".24" stop-color="#04000E"/><stop offset=".3" stop-color="#0D0123"/><stop offset=".37" stop-color="#1C0346"/><stop offset=".45" stop-color="#310676"/><stop offset=".51" stop-color="#4409A1"/><stop offset=".68" stop-color="#BE3DD9"/><stop offset="1" stop-color="#FDBEFA"/></radialGradient><radialGradient id="i" cx="0" cy="0" r="1" gradientUnits="userSpaceOnUse" gradientTransform="rotate(-13.95 93.38 -1016.62) scale(316.756 294.584)"><stop stop-color="#010101"/><stop offset=".37" stop-color="#061515"/><stop offset=".58" stop-color="#186B6B"/><stop offset=".8" stop-color="#799A9A"/><stop offset="1" stop-color="#E3EAEA"/></radialGradient><radialGradient id="j" cx="0" cy="0" r="1" gradientUnits="userSpaceOnUse" gradientTransform="matrix(325.20022 -80.78015 75.12526 302.43505 244.76 275.9)"><stop offset=".21" stop-color="#010007"/><stop offset=".24" stop-color="#04000E"/><stop offset=".3" stop-color="#0D0123"/><stop offset=".37" stop-color="#1C0346"/><stop offset=".45" stop-color="#310676"/><stop offset=".51" stop-color="#4409A1"/><stop offset=".68" stop-color="#BE3DD9"/><stop offset="1" stop-color="#FDBEFA"/></radialGradient><radialGradient id="k" cx="0" cy="0" r="1" gradientUnits="userSpaceOnUse" gradientTransform="matrix(-307.41375 76.36197 -71.01686 -285.89568 233.43 282.97)"><stop stop-color="#010101"/><stop offset=".37" stop-color="#061515"/><stop offset=".58" stop-color="#186B6B"/><stop offset=".8" stop-color="#799A9A"/><stop offset="1" stop-color="#E3EAEA"/></radialGradient><linearGradient id="d" x1="-4.69" y1="53.03" x2="233.57" y2="-6.16" gradientUnits="userSpaceOnUse"><stop offset=".23" stop-color="#010007"/><stop offset=".54" stop-color="#4409A1"/><stop offset=".76" stop-color="#BE3DD9"/><stop offset=".89" stop-color="#FDBEFA"/><stop offset="1" stop-color="#F6C6F1"/></linearGradient><linearGradient id="e" x1="589.74" y1="-94.65" x2="244.43" y2="-8.87" gradientUnits="userSpaceOnUse"><stop stop-color="#010101"/><stop offset=".29" stop-color="#060815"/><stop offset=".6" stop-color="#122346"/><stop offset="1" stop-color="#E3E4EA"/></linearGradient><linearGradient id="f" x1="484.67" y1="217" x2="246.4" y2="276.18" gradientUnits="userSpaceOnUse"><stop offset=".23" stop-color="#010007"/><stop offset=".54" stop-color="#4409A1"/><stop offset=".76" stop-color="#BE3DD9"/><stop offset=".89" stop-color="#FDBEFA"/><stop offset="1" stop-color="#F6C6F1"/></linearGradient><linearGradient id="g" x1="-109.76" y1="364.68" x2="235.55" y2="278.9" gradientUnits="userSpaceOnUse"><stop stop-color="#010101"/><stop offset=".29" stop-color="#060815"/><stop offset=".6" stop-color="#122346"/><stop offset="1" stop-color="#E3E4EA"/></linearGradient><clipPath id="a"><path fill="#fff" d="M0 0h480v270H0z"/></clipPath></defs></svg>